<svg
  xmlns="http://www.w3.org/2000/svg"
  xmlns:xlink="http://www.w3.org/1999/xlink"
  width="80"
  height="68"
  viewBox="515 293 80 68"
>
  <defs>
    <!-- Форма для маски (рот) -->
    <path
      id="render-73537-a"
      d="M1.45656876,3.14684877 C1.45656876,3.14684877 1.45656876,3.14684877 1.45656876,3.14684877 L0,3.14685315 C0,2.31818182 0.346033696,1.50734266 0.949429952,0.922027972 C1.55390756,0.335664336 2.38979521,0 3.2440659,0 L25.9525272,0 C26.8067979,0 27.6416041,0.335664336 28.2460818,0.922027972 C28.8505594,1.50734266 29.1965931,2.31818182 29.1965931,3.14685315 C29.1890236,5.85734266 28.240675,8.44825175 26.7127199,10.6814685 C25.1771954,12.9104895 23.0317865,14.8122378 20.4040931,16.0227273 C18.6544603,16.8251748 16.6809868,17.3087413 14.5982965,17.3076923 C11.4666916,17.3076923 8.61299495,16.2241259 6.33025392,14.5951049 C4.0399434,12.9587413 2.264358,10.779021 1.16245695,8.33811189 C0.431460764,6.70909091 0.0010813553,4.95314685 0,3.14685315 L1.45656896,3.14685315 Z"
    />
    <mask id="render-73537-b" x="-0.1" y="-0.1" width="1.2" height="1.2">
      <g
        transform="matrix(0.313434, 0.000000, 0.000000, -0.266419, 550.338485, 331.755473)"
      >
        <!-- тут важно fill="#fff", иначе язык пропадает -->
        <use xlink:href="#render-73537-a" fill="#fff" />
      </g>
    </mask>
  </defs>

  <!-- Основное "облако" -->
  <path
    d="M554.4140625,304.625732421875C543.310546875,304.9464416503906,534.66796875,314.2080993652344,534.66796875,324.98944091796875L534.66796875,345.30902099609375C534.66796875,347.471435546875,536.494140625,349.2303161621094,538.740234375,349.2303161621094C540.986328125,349.2303161621094,542.8173828125,347.471435546875,542.8173828125,345.309326171875C542.8173828125,344.5884704589844,543.4228515625,344.0022888183594,544.1748046875,344.0022888183594C544.921875,344.0022888183594,545.5322265625,344.5884704589844,545.5322265625,345.309326171875C545.5322265625,347.471435546875,547.3583984375,349.2303161621094,549.6044921875,349.2303161621094C550.693359375,349.2303161621094,551.71875,348.8223571777344,552.4853515625,348.08197021484375C553.2568359375,347.3414001464844,553.681640625,346.3564758300781,553.681640625,345.309326171875C553.681640625,344.5867614746094,554.2869873046875,344.0022888183594,555.0390625,344.0022888183594C555.7861328125,344.0022888183594,556.3963623046875,344.5884704589844,556.3963623046875,345.309326171875C556.3963623046875,347.471435546875,558.2275390625,349.2303161621094,560.4736328125,349.2303161621094C562.7197265625,349.2303161621094,564.5458984375,347.471435546875,564.5458984375,345.309326171875C564.5458984375,344.5884704589844,565.15625,344.0022888183594,565.9033203125,344.0022888183594C566.6552734375,344.0022888183594,567.2607421875,344.5884704589844,567.2607421875,345.309326171875C567.2607421875,347.471435546875,569.0916748046875,349.2303161621094,571.3377685546875,349.2303161621094C573.5838623046875,349.2303161621094,575.41015625,347.471435546875,575.41015625,345.309326171875L575.41015625,324.2221984863281C575.41015625,313.2920837402344,566.0643310546875,304.2897033691406,554.4140625,304.625732421875Z"
    fill="#d7baff"
  />

  <!-- Тень справа -->
  <path
    d="M569.6142578125,348.8620300292969C571.0009765625,348.2358703613281,571.9627685546875,346.878662109375,571.9627685546875,345.309326171875L571.9627685546875,324.2221984863281C571.9627685546875,314.2052001953125,564.1162109375,305.80755615234375,553.8330078125,304.7328186035156C554.0185546875,304.666259765625,554.2137451171875,304.6298828125,554.4140625,304.625732421875C566.0643310546875,304.2897033691406,575.41015625,313.2920837402344,575.41015625,324.2221984863281L575.41015625,345.309326171875C575.41015625,347.471435546875,573.5838623046875,349.2303161621094,571.3377685546875,349.2303161621094C570.72265625,349.2303161621094,570.13671875,349.0982971191406,569.6142578125,348.8620300292969Z"
    fill="#121212"
    fill-opacity="0.1"
  />

  <!-- Верхняя чёрная "губа" -->
  <path
    d="M550.7958984375,326.5024719238281L550.3369140625,326.5024719238281C550.3369140625,326.2817687988281,550.44921875,326.06573486328125,550.634765625,325.9097900390625C550.8251953125,325.7535400390625,551.0888671875,325.6641540527344,551.357421875,325.6641540527344L558.4716796875,325.6641540527344C558.7401123046875,325.6641540527344,559.00390625,325.7535400390625,559.1893310546875,325.9097900390625C559.3798828125,326.06573486328125,559.4873046875,326.2817687988281,559.4873046875,326.5024719238281C559.4873046875,327.2246398925781,559.1893310546875,327.9148864746094,558.7109375,328.5099182128906C558.2275390625,329.10369873046875,557.55859375,329.6103820800781,556.7333984375,329.932861328125C556.1865234375,330.1466369628906,555.56640625,330.2754821777344,554.9119873046875,330.2752380371094C553.9306640625,330.2752380371094,553.037109375,329.98651123046875,552.32421875,329.5525817871094C551.6064453125,329.1166076660156,551.0498046875,328.535888671875,550.703125,327.88555908203125C550.4736328125,327.4515380859375,550.3369140625,326.9837341308594,550.3369140625,326.5024719238281L550.7958984375,326.5024719238281Z"
    fill="#000000"
  />

  <!-- Красная часть рта (язык, через маску) -->
  <path
    d="M553.3447265625,329.10333251953125L553.1591796875,329.10333251953125C553.1591796875,329.179931640625,553.203125,329.25482177734375,553.28125,329.3088073730469C553.359375,329.3629455566406,553.5791015625,329.62408447265625,555.0390625,329.62408447265625C556.50390625,329.62408447265625,556.71875,329.3629455566406,556.796875,329.3088073730469C556.875,329.25482177734375,556.9189453125,329.179931640625,556.9189453125,329.10333251953125C556.9189453125,328.8530578613281,556.796875,328.61370849609375,556.6015625,328.4075012207031C556.4013671875,328.2016296386719,556.1279296875,328.0259704589844,555.7861328125,327.9141540527344C555.5615234375,327.8400573730469,555.3076171875,327.7953796386719,555.0390625,327.79547119140625C554.6385498046875,327.79547119140625,554.2674560546875,327.89556884765625,553.974609375,328.0460205078125C553.681640625,328.1971130371094,553.4521484375,328.3984680175781,553.310546875,328.6239013671875C553.212890625,328.77435302734375,553.1591796875,328.9365539550781,553.1591796875,329.10333251953125Z"
    fill="#e74144"
    mask="url(#render-73537-b)"
  />

  <!-- Глаза-тени -->
  <g opacity="0.2">
    <ellipse
      cx="545.6369696969689"
      cy="325.93054545454515"
      rx="0.940303030301493"
      ry="0.7992575757575935"
      fill="#000000"
    />
    <ellipse
      cx="564.4430303030238"
      cy="325.93054545454515"
      rx="0.9403030303017204"
      ry="0.7992575757575935"
      fill="#000000"
    />
  </g>

  <!-- Нижние уголки рта -->
  <path
    d="M549.0771484375,322.4622802734375C549.0234375,322.001953125,548.59375,321.6678771972656,548.0615234375,321.6678771972656C547.705078125,321.6678771972656,547.3779296875,321.81414794921875,547.1923828125,322.0484313964844C547.01171875,321.81103515625,546.69921875,321.6678466796875,546.34765625,321.6678466796875C545.810546875,321.6678466796875,545.3857421875,322.00189208984375,545.33203125,322.46221923828125C545.3271484375,322.4825134277344,545.3076171875,322.589599609375,545.361328125,322.7641296386719C545.439453125,323.015869140625,545.6201171875,323.24481201171875,545.8837890625,323.4261474609375C545.8837890625,323.4261474609375,546.6943359375,324.3320617675781,547.1923828125,324.3320617675781C547.6953125,324.3320617675781,548.525390625,323.42620849609375,548.525390625,323.42620849609375C548.7890625,323.24481201171875,548.9697265625,323.0158996582031,549.0478515625,322.7641296386719C549.1015625,322.58966064453125,549.08203125,322.4825744628906,549.0771484375,322.4622802734375Z"
    fill="#000000"
  />
  <path
    d="M565.0634765625,322.4622802734375C565.0096435546875,322.001953125,564.5799560546875,321.6678771972656,564.0478515625,321.6678771972656C563.69140625,321.6678771972656,563.3642578125,321.81414794921875,563.1787109375,322.0484313964844C562.9979248046875,321.81103515625,562.6854248046875,321.6678466796875,562.3338623046875,321.6678466796875C561.796875,321.6678466796875,561.3720703125,322.00189208984375,561.3134765625,322.46221923828125C561.30859375,322.4825134277344,561.2939453125,322.589599609375,561.34765625,322.7641296386719C561.42578125,323.015869140625,561.6064453125,323.24481201171875,561.8651123046875,323.4261474609375C561.8651123046875,323.4261474609375,562.67578125,324.3320617675781,563.1787109375,324.3320617675781C563.6767578125,324.3320617675781,564.51171875,323.42620849609375,564.51171875,323.42620849609375C564.7752685546875,323.24481201171875,564.9560546875,323.0158996582031,565.0291748046875,322.7641296386719C565.0877685546875,322.58966064453125,565.0682373046875,322.4825744628906,565.0634765625,322.4622802734375Z"
    fill="#000000"
  />
</svg>
